<?xml version="1.0" encoding="UTF-8" standalone="no"?>
<svg
   version="1.1"
   x="0px"
   y="0px"
   viewBox="0 0 100 125"
   style="enable-background:new 0 0 100 100;"
   xml:space="preserve"
   id="svg7"
   sodipodi:docname="noun-water-tank-6196071.svg"
   inkscape:version="1.4 (86a8ad7, 2024-10-11)"
   xmlns:inkscape="http://www.inkscape.org/namespaces/inkscape"
   xmlns:sodipodi="http://sodipodi.sourceforge.net/DTD/sodipodi-0.dtd"
   xmlns="http://www.w3.org/2000/svg"
   xmlns:svg="http://www.w3.org/2000/svg"><defs
     id="defs7" /><sodipodi:namedview
     id="namedview7"
     pagecolor="#ffffff"
     bordercolor="#000000"
     borderopacity="0.25"
     inkscape:showpageshadow="2"
     inkscape:pageopacity="0.0"
     inkscape:pagecheckerboard="0"
     inkscape:deskcolor="#d1d1d1"
     inkscape:zoom="6.456"
     inkscape:cx="49.953532"
     inkscape:cy="62.5"
     inkscape:window-width="1920"
     inkscape:window-height="1009"
     inkscape:window-x="1912"
     inkscape:window-y="-8"
     inkscape:window-maximized="1"
     inkscape:current-layer="svg7" /><g
     id="g4"><path
       d="M53.2399902,56.5029106c-1.1300049-2.1799927-2.539978-4.8800049-1.8300171-7.210022l0.5200195-1.7199707   c-1.0499878,1.789978-5.7700195,8.4500122-6.6599731,12.8900146c-0.3400269,3.0999756,1.3299561,5.5999718,4.5,5.4399986   C55.1500244,65.742897,55.7700195,60.4728813,53.2399902,56.5029106z M53.3200073,63.8429375   c-1.1500244,1.7199669-5.1199951,2.2099571-6.5599976,0.4599571c-3.1600342-3.6699791,1.9400024-10.1799889,3.9599609-13.8999596   C50.4099731,54.9228935,56.3900146,59.6229057,53.3200073,63.8429375z"
       id="path1" /><path
       d="M89.7600098,26.4928989v-2.8200073c0-0.9500122-0.7700195-1.7199707-1.710022-1.7199707h-2.7099609v-0.2399902h-1.7700195   v0.789978h-8.0200195c-0.9899902-0.6199951-2.1099854-1.1199951-3.4799805-1.5900269v-0.789978h-2.8300171   C59.75,17.572916,30.4099731,17.7928867,24.5599976,22.4329014c-3.7299805,2.2700195-3.7299805,5.039978-3.7299805,7.0700073   v8.5999775c-0.6100464,0.3800049-0.5,2.1700439,0,2.6700439v4.6300049c-0.6100464,0.3800049-0.5,2.1699829,0,2.6699829v4.6300049   c-0.6100464,0.3800049-0.5,2.1699829,0,2.6699829v4.6300049c-0.6100464,0.3800049-0.5,2.1699829,0,2.6699829v4.6300011   c-0.6100464,0.3800049-0.5,2.1699829,0,2.6799927c-0.0800171,2.2700195,0.5199585,4.5,1.6699829,6.3099976h-3.8300171v-0.7799683   h-1.7799683v0.2299805h-0.5800171v-0.6599731h0.8400269v-1.4200439h-3.6199951v1.4200439h0.8299561v0.6599731h-0.5799561   v-0.2299805h-1.7700195v0.7799683H10v0.5100098h2.0100098v1.5800171H10v0.5h2.0100098v0.789978h1.7700195v-0.2399902h3.1099854   v0.2399902h1.7799683v-0.789978h6.0599976c1.9299927,1.6400146,4.4200439,2.6199951,7.1400146,2.6199951h36.2600098   c6.3200073,0.0200195,11.3499756-5.3400269,11.0499878-11.6300049c0.1099854-0.1500244,0.1900024-0.3699951,0.2399902-0.6599731   c0.0900269-0.6199951,0.1600342-1.4200439-0.2399902-1.8500366v-4.7899742c0.3699951-0.6500244,0.4799805-1.9400024,0-2.5100098   v-4.789978c0.3699951-0.6300049,0.4799805-1.960022,0-2.5100098v-4.7900391c0.3699951-0.6499634,0.4799805-1.9399414,0-2.5099487   v-4.7900391c0.1099854-0.1599731,0.1900024-0.3699951,0.2399902-0.6599731   c0.0900269-0.6199951,0.1600342-1.4199829-0.2399902-1.8500366v-8.6599751c0-1.2800293,0-2.8599854-0.9400024-4.4199829h5.3300171   v0.789978h1.7700195v-0.2399902h0.6199951c0.0700073,0,0.1199951,0.0599976,0.1199951,0.1199951v0.7399902h-0.2399902v1.7700195   h0.789978v1.0299683h0.5v-1.0299683h1.5800171v1.0299683h0.5v-1.0299683H90v-1.7700195H89.7600098z M13.2800293,79.1628799   h-0.7700195v-3.1499634h0.7700195V79.1628799z M14.0300293,74.5729141v-0.4100342h2.6099854v0.4100342H14.0300293z    M15.8099976,75.0829239v0.6599731h-0.9500122v-0.6599731H15.8099976z M16.8900146,78.9228897h-3.1099854v-2.6699829h3.1099854   V78.9228897z M18.1599731,79.1628799h-0.7699585v-3.1499634h0.7699585V79.1628799z M73.5900269,22.0428867   c0.3299561,0.1500244,0.6499634,0.3000488,0.9499512,0.460022h-0.9499512V22.0428867z M72.0700073,21.4529209   c0.2399902,0.0899658,0.4799805,0.1699829,0.710022,0.2600098h-0.9700317v0.2399902h-0.5800171V21.532938h0.8400269V21.4529209z    M73.0900269,22.2228794v3.1500244h-0.7800293v-3.1500244H73.0900269z M71.8099976,22.4529209v2.6799927h-3.1099854v-2.6799927   H71.8099976z M69.7800293,21.9529209V21.532938h0.9499512v0.4199829H69.7800293z M68.9500122,20.6229038h2.6099854v0.4100342   h-2.6099854V20.6229038z M18.6699829,78.3829117v-1.5800171h7.2399902   c0.4300537,0.3300171,0.9500122,1.0499878,1.0400391,1.5800171H18.6699829z M78.6699829,70.4629288   c0,5.8099976-4.7299805,10.539978-10.539978,10.539978H31.8699951c-2.3800049,0-4.5700073-0.789978-6.3399658-2.1199951h0.5899658   c0.4199829,0.3300171,0.8699951,0.4799805,1.210022,0.2399902c0.5199585-0.4000244,0.1799927-1.3699951-0.3699951-2.0999756   c-0.4100342-0.6100464-1.5800171-1.6300049-2.0900269-0.7300415h-1.7700195   c-1.1599731-1.7199707-1.8099976-3.8399658-1.7699585-6.0599976c8.9099731,4.4000244,48.4500122,4.5300293,57.3399658-0.0299683   V70.4629288z M78.5700073,69.6929092c-8.7200317,4.5599976-48.6199951,4.5-57.3900146-0.0700073   c-0.3399658-0.4000244-0.2999878-1.5700073-0.1400146-1.8399658c10.2800293,3.6699829,48.4900513,4.6299438,57.8400269,0   C79.0499878,68.1628799,79.0700073,69.5829239,78.5700073,69.6929092z M78.6699829,55.6028862v4.4200439   c-3.7699585,1.5700073-10.1300049,2.5700073-18.2199707,2.9499512C60.3499756,63.152935,60.25,63.3229179,60.1400146,63.4929008   c6.2099609-0.2700195,13.9299927-1.0200195,18.7399902-3.0100098c0.1900024,0.3800049,0.1300049,1.5500488-0.1500244,1.8400269   c-3.6999512,1.7299767-11.0899658,2.8699913-20.2999878,3.3200035c-0.1799927,0.1799927-0.3699951,0.3599854-0.5700073,0.5299683   c9.4400024-0.4099731,17.0599976-1.5899658,20.8099976-3.2699547v4.4199791   c-9.1599731,4.5700073-47.1900024,3.5899658-57.3399658,0.0200195v-4.4100304   c3.7399902,1.6000328,11.5199585,2.7899742,20.7799683,3.2200279c-0.1900024-0.1700439-0.3800049-0.3500366-0.5599976-0.5300293   c-9.2099609-0.4699707-16.539978-1.5899658-20.3699951-3.299984c-0.3399658-0.4000244-0.2999878-1.5700073-0.1400146-1.8400269   c3.6700439,1.2200317,10.5100098,2.1900024,18.6500244,2.7399902c-0.0999756-0.1699829-0.2000122-0.3499756-0.289978-0.5299683   c-7.8800049-0.539978-14.6100464-1.5-18.0700073-2.6500244v-4.4099731   c3.2299805,1.3800049,9.2699585,2.4400024,16.8099976,2.9899902c-0.0200195-0.1699829-0.0400391-0.3399658-0.0499878-0.5200195   C30.5,57.5528984,24.5100098,56.5129204,21.1799927,55.0229301c-0.3399658-0.4000244-0.2999878-1.5700073-0.1400146-1.8400269   c3.4500122,1.1500244,9.6300049,2.0700073,17.0900269,2.6300049c0.0200195-0.1699829,0.039978-0.3400269,0.0700073-0.5100098   c-7.3200073-0.5499878-13.6199951-1.4799805-16.8699951-2.5599976v-4.4099731   c3.4299927,1.4699707,10.039978,2.5700073,18.2000122,3.0799561c0.0899658-0.1599731,0.1899414-0.3299561,0.289978-0.4899902   c-8.4199829-0.5100098-15.0100098-1.5899658-18.6400146-3.2000122c-0.3399658-0.3999634-0.2999878-1.5699463-0.1400146-1.8399658   C25,47.2029228,32.7199707,48.2328911,41.5499878,48.7328911c0.1600342-0.1599731,0.3300171-0.3200073,0.5-0.4699707   c-8.9199829-0.4899902-16.8499756-1.5400391-20.7199707-2.8200073v-4.4099731   c8.9099731,4.3999634,48.4599609,4.5299683,57.3399658-0.0300293v4.4199829   c-4.0899658,1.7000122-11.3699951,2.75-20.4899902,3.0400391c0.1699829,0.1699829,0.3300171,0.3299561,0.4899902,0.5   c6.960022-0.25,15.1600342-0.9900513,20.210022-3.0800171c0.1799927,0.3800049,0.1300049,1.539978-0.1500244,1.8399658   c-3.4899902,1.6200562-10.1199951,2.7300415-18.5299683,3.2300415c0.0999756,0.1599731,0.1900024,0.3300171,0.2799683,0.4899902   c8.1900024-0.5,14.8000488-1.6300049,18.1900024-3.1400146v4.4199829   C74.4000244,54.4828911,67.75,55.2629204,61.8400269,55.6028862c0.0299683,0.1700439,0.0499878,0.3400269,0.0599976,0.5100098   c5.9599609-0.3499756,12.6399536-1.1400146,16.9799805-2.9299927c0.1900024,0.3800049,0.1300049,1.5499878-0.1500244,1.8400269   c-3.2600098,1.5199585-9.1699829,2.5599976-16.8200073,3.1099854c-0.0099487,0.1699829-0.0299683,0.3399658-0.0499878,0.5100098   C69.4299927,58.112896,75.4699707,57.0329399,78.6699829,55.6028862z M78.5700073,40.4929008   c-8.7200317,4.5599976-48.6199951,4.5-57.3900146-0.0700073c-0.3399658-0.3999634-0.2999878-1.5700073-0.1400146-1.8399658   c10.2800293,3.6699829,48.4900513,4.6199951,57.8400269,0C79.0499878,38.9629326,79.0700073,40.3829155,78.5700073,40.4929008z    M78.6699829,29.5029087v8.619997c-9.1599731,4.5800171-47.1900024,3.5800171-57.3399658,0.0200195v-8.6400166   c0-0.2999878,0-0.6099854,0.0100098-0.9400024c6.7099609,3.7200336,49.9400024,4.2399921,57.3199463,0.0700073   C78.6699829,28.9329014,78.6699829,29.2228794,78.6699829,29.5029087z M78.5999756,27.822916c0,0.0100098,0,0.0100098,0,0.0100098   c-3.5699463,4.6099873-54.7299805,3.9099731-57.1799927-0.0300293h-0.0199585   c0.7399902-11.3300171,37.1599731-9.2999878,47.0499878-7.3300171v1.0600586h0.8300171v0.4199829h-0.5800171v-0.2399902h-1.7800293   v0.789978h-4.5899658v-1.4000244c0-0.0899658,0-0.2299805-0.1600342-0.3800049   c-0.289978-0.2999878-1.1300049-0.6799927-3.5999756-1.0099487c-1.789978-0.4000244-9.3699951-0.5500488-12.710022-0.3800049   c-1.9099731,0.1300049-7.75,0.2399902-8.1799927,1.7699585c0,0.1400146,0,3.2400513,0,3.2400513   c-0.0100098,0.1099854-0.0700073,0.2199707-0.1599731,0.2699585C37.25,24.7629185,37.25,25.1829014,37.5100098,25.3528843   c3.1699829,2.0400391,22.5499878,2.4700317,25.1900024-0.2699585h4.2199707v0.789978h1.7800293v-0.2399902h3.1099854v0.2399902   h1.7800293v-0.789978h4.039978C78.25,26.0129185,78.5,26.9429111,78.5999756,27.822916z M68.2000122,22.2228794v3.1500244   h-0.7700195v-3.1500244H68.2000122z M61.8200073,21.7228794v0.7800293H61.25   c-0.789978-0.8599854-1.289978,0.6199951-1.2199707,1.289978C59.960022,24.4629307,60.460022,25.9429111,61.25,25.0829258   h0.7299805c-2.6599731,1.8699951-21.6999512,1.7799683-24.1099854-0.1000366   c0.1900024-0.1499634,0.2999878-0.3800049,0.3099976-0.6300049v-2.6300049   C42.4799805,23.4228916,57.539978,23.4228916,61.8200073,21.7228794z M38.2600098,21.1229038   c2.9599609-1.9899902,21.6300049-1.5499878,23.5100098-0.0299683c-0.0400391,0.0499878-0.210022,0.1999512-0.8000488,0.3799438   C56.8200073,22.6329136,42.0800171,22.9629307,38.2600098,21.1229038z M60.6500244,24.5829258   c-0.1600342-0.4200439-0.1600342-1.1600342,0-1.5800171h6.2699585v1.5800171H60.6500244z M83.5700073,24.5829258h-9.9799805   v-1.5800171h9.9799805V24.5829258z M84.8400269,25.3729038h-0.7700195v-3.1500244h0.7700195V25.3729038z M85.960022,25.1329136   h-0.6199951v-2.6799927h2.7099609c0.6600342,0,1.210022,0.5499878,1.210022,1.2199707v2.8200073h-2.6799927   C86.5700073,25.9529209,86.7299805,25.1728916,85.960022,25.1329136z M89.5,27.7629185h-3.1599731v-0.7700195H89.5V27.7629185z"
       id="path2" /><path
       d="M52.5999756,62.2429008c-0.0799561,0.4100342-0.6799927,1.7700157-1.2699585,1.3400269   c-0.0800171-0.1199951-0.0700073-0.2800293,0.0299683-0.3600464c1.25-0.9499512,0.7300415-2.7599487,0.6900024-4.1799927   C52.3599854,60.1028862,52.8499756,61.0929375,52.5999756,62.2429008z"
       id="path3" /><path
       d="M49.710022,20.0829258c-0.0100098,0.1199951-10.1700439-0.2300415-10.3800049,1.0199585   c0,0.3000488,0.0100098,0.5100098,4.2699585,0.7900391c5.0700073,0.3099976,7.5400391,0.3499756,12.8000488-0.0800171   c4.0599976-0.3200073,4.0599976-0.4199829,4.0599976-0.710022C60.8800049,20.3329258,50.710022,20.1028843,49.710022,20.0829258z    M55.8599854,20.8929234h-5.75l-0.25-0.2600098C51.710022,20.6429234,53.9500122,20.7529087,55.8599854,20.8929234z    M49.2800293,20.6329136l0.25,0.2600098h-7.3800049C44.2399902,20.7328892,47.2700195,20.6529331,49.2800293,20.6329136z    M43.039978,21.3028965h6.8900146l0.2700195,0.2800293C48.210022,21.5929356,45.3499756,21.4629307,43.039978,21.3028965z    M50.7700195,21.572916l-0.2600098-0.2700195h5.3900146C54.2000122,21.4329014,52.2800293,21.5428867,50.7700195,21.572916z"
       id="path4" /></g><path
     d="M52.0499878,59.039978c0.3099976,1.0599976,0.7999878,2.0500488,0.5499878,3.2000122  c-0.0799561,0.4100342-0.6799927,1.7700195-1.2699585,1.3400269C51.25,63.460022,51.2600098,63.2999878,51.3599854,63.2199707  C52.6099854,62.2700195,52.0900269,60.460022,52.0499878,59.039978z"
     id="path5" /><path
     d="M53.2399902,56.5c-1.1300049-2.1799927-2.539978-4.8800049-1.8300171-7.210022l0.5200195-1.7199707  c-1.0499878,1.789978-5.7700195,8.4500122-6.6599731,12.8900146c-0.3400269,3.0999756,1.3299561,5.5999756,4.5,5.4400024  C55.1500244,65.7399902,55.7700195,60.4699707,53.2399902,56.5z M53.3200073,63.8400269  c-1.1500244,1.7199707-5.1199951,2.2099609-6.5599976,0.4599609c-3.1600342-3.6699829,1.9400024-10.1799927,3.9599609-13.8999634  C50.4099731,54.9199829,56.3900146,59.6199951,53.3200073,63.8400269z"
     id="path6" /></svg>
