<?xml version="1.0" standalone="no"?>
<!DOCTYPE svg PUBLIC "-//W3C//DTD SVG 20010904//EN"
 "http://www.w3.org/TR/2001/REC-SVG-20010904/DTD/svg10.dtd">
<svg version="1.0" xmlns="http://www.w3.org/2000/svg"
 width="512.000000pt" height="512.000000pt" viewBox="0 0 512.000000 512.000000"
 preserveAspectRatio="xMidYMid meet">

<g transform="translate(0.000000,512.000000) scale(0.100000,-0.100000)"
fill="#000000" stroke="none">
<path d="M2560 3845 l0 -605 915 0 915 0 0 408 0 407 -474 198 -473 197 -441
0 -442 0 0 -605z"/>
<path d="M2560 2570 l0 -370 915 0 915 0 0 370 0 370 -915 0 -915 0 0 -370z"/>
<path d="M2560 1530 l0 -370 915 0 915 0 0 370 0 370 -915 0 -915 0 0 -370z"/>
<path d="M2560 430 l0 -430 915 0 915 0 0 430 0 430 -915 0 -915 0 0 -430z"/>
</g>
</svg>
